
<svg width="32px" height="31px" viewBox="0 0 32 31" version="1.1" xmlns="http://www.w3.org/2000/svg" xmlns:xlink="http://www.w3.org/1999/xlink">
    <!-- Generator: Sketch 43.1 (39012) - http://www.bohemiancoding.com/sketch -->
    <desc>Created with Sketch.</desc>
    <defs></defs>
    <g id="Page-1" stroke="none" stroke-width="1" fill="none" fill-rule="evenodd">
        <g id="logo_small" fill="#ffffff">
            <path d="M-3.55271368e-15,29.8133717 L8.50121761,29.8133717 L8.50121761,27.9856099 L2.18906353,27.9856099 L2.18906353,15.2550365 L-3.55271368e-15,15.2550365 L-3.55271368e-15,29.8133717 Z M14.799203,30.0684082 C18.2634492,30.0684082 19.8361744,28.3681647 19.8361744,25.7115342 C19.8361744,23.203675 18.4547266,22.247288 16.2656631,21.5459376 L14.8204561,21.0996236 C13.3114899,20.6320567 12.865176,20.0794775 12.865176,18.8255479 C12.865176,17.5291122 13.7790569,16.8277618 15.3942882,16.8277618 C16.9882665,16.8277618 18.178437,17.2103166 19.0710649,17.5928714 L19.0710649,15.8076157 C18.2634492,15.4038078 17.2433031,15 15.3942882,15 C12.2700908,15 10.6973655,16.6577374 10.6973655,19.0168253 C10.6973655,21.3759132 11.9300421,22.4385654 13.9278282,23.0549037 L15.3517822,23.5224707 C17.0095196,24.0537968 17.5833518,24.6063759 17.5833518,25.8815585 C17.5833518,27.3267655 16.711977,28.2406464 14.6504317,28.2406464 C13.0989595,28.2406464 11.6750055,27.8580916 10.5485942,27.3267655 L10.5485942,29.1120212 C11.5474873,29.6646004 12.9501882,30.0684082 14.799203,30.0684082 Z M23.0737215,29.8133717 L32,29.8133717 L32,27.9856099 L25.262785,27.9856099 L25.262785,23.224928 L30.4272747,23.224928 L30.4272747,21.4184193 L25.262785,21.4184193 L25.262785,17.0827983 L31.9149878,17.0827983 L31.9149878,15.2550365 L23.0737215,15.2550365 L23.0737215,29.8133717 Z" id="LSE"></path>
            <polygon id="Path-3" points="0 14 0 6 2 6 2 14"></polygon>
            <polygon id="Path-4" points="5 9 7 9 7 14 5 14"></polygon>
            <polygon id="Path-7" points="10 4 12 4 12 14 10 14"></polygon>
            <polygon id="Path-8" points="15 0 17 0 17 14 15 14"></polygon>
            <polygon id="Path-10" points="20 6 22 6 22 14 20 14"></polygon>
            <polygon id="Path-11" points="25 3 27 3 27 14 25 14"></polygon>
            <polygon id="Path-13" points="30 8 32 8 32 14 30 14"></polygon>
        </g>
    </g>
</svg>